<mxfile host="app.diagrams.net" modified="2023-11-02T01:42:26.585Z" agent="Mozilla/5.0 (Windows NT 10.0; Win64; x64) AppleWebKit/537.36 (KHTML, like Gecko) Chrome/93.0.4577.63 Safari/537.36 Edg/93.0.961.47" etag="4Zwje8pJd0ZJ68Vn2hgu" version="22.0.8" type="github">
  <diagram name="第 1 页" id="6L4uH9A4gC2HEkJVqErH">
    <mxGraphModel dx="1290" dy="580" grid="1" gridSize="10" guides="1" tooltips="1" connect="1" arrows="1" fold="1" page="1" pageScale="1" pageWidth="827" pageHeight="1169" math="0" shadow="0">
      <root>
        <mxCell id="0" />
        <mxCell id="1" parent="0" />
        <mxCell id="8ZahUo-zOntCX7Fe7yov-8" style="edgeStyle=orthogonalEdgeStyle;rounded=0;orthogonalLoop=1;jettySize=auto;html=1;entryX=0;entryY=0.5;entryDx=0;entryDy=0;" edge="1" parent="1" source="8ZahUo-zOntCX7Fe7yov-1" target="8ZahUo-zOntCX7Fe7yov-2">
          <mxGeometry relative="1" as="geometry" />
        </mxCell>
        <mxCell id="8ZahUo-zOntCX7Fe7yov-1" value="草图操作开始" style="rounded=1;whiteSpace=wrap;html=1;" vertex="1" parent="1">
          <mxGeometry x="10" y="140" width="120" height="60" as="geometry" />
        </mxCell>
        <mxCell id="8ZahUo-zOntCX7Fe7yov-9" style="edgeStyle=orthogonalEdgeStyle;rounded=0;orthogonalLoop=1;jettySize=auto;html=1;entryX=0;entryY=0.5;entryDx=0;entryDy=0;" edge="1" parent="1" source="8ZahUo-zOntCX7Fe7yov-2" target="8ZahUo-zOntCX7Fe7yov-3">
          <mxGeometry relative="1" as="geometry" />
        </mxCell>
        <mxCell id="8ZahUo-zOntCX7Fe7yov-2" value="开启文档事物" style="rounded=0;whiteSpace=wrap;html=1;" vertex="1" parent="1">
          <mxGeometry x="160" y="140" width="120" height="60" as="geometry" />
        </mxCell>
        <mxCell id="8ZahUo-zOntCX7Fe7yov-10" style="edgeStyle=orthogonalEdgeStyle;rounded=0;orthogonalLoop=1;jettySize=auto;html=1;entryX=0;entryY=0.5;entryDx=0;entryDy=0;" edge="1" parent="1" source="8ZahUo-zOntCX7Fe7yov-3" target="8ZahUo-zOntCX7Fe7yov-4">
          <mxGeometry relative="1" as="geometry" />
        </mxCell>
        <mxCell id="8ZahUo-zOntCX7Fe7yov-3" value="草图操作" style="rounded=0;whiteSpace=wrap;html=1;" vertex="1" parent="1">
          <mxGeometry x="320" y="140" width="120" height="60" as="geometry" />
        </mxCell>
        <mxCell id="8ZahUo-zOntCX7Fe7yov-11" style="edgeStyle=orthogonalEdgeStyle;rounded=0;orthogonalLoop=1;jettySize=auto;html=1;entryX=0.5;entryY=0;entryDx=0;entryDy=0;" edge="1" parent="1" source="8ZahUo-zOntCX7Fe7yov-4" target="8ZahUo-zOntCX7Fe7yov-5">
          <mxGeometry relative="1" as="geometry" />
        </mxCell>
        <mxCell id="8ZahUo-zOntCX7Fe7yov-4" value="更改草图数据" style="rounded=0;whiteSpace=wrap;html=1;" vertex="1" parent="1">
          <mxGeometry x="480" y="140" width="120" height="60" as="geometry" />
        </mxCell>
        <mxCell id="8ZahUo-zOntCX7Fe7yov-12" style="edgeStyle=orthogonalEdgeStyle;rounded=0;orthogonalLoop=1;jettySize=auto;html=1;entryX=1;entryY=0.5;entryDx=0;entryDy=0;" edge="1" parent="1" source="8ZahUo-zOntCX7Fe7yov-5" target="8ZahUo-zOntCX7Fe7yov-6">
          <mxGeometry relative="1" as="geometry" />
        </mxCell>
        <mxCell id="8ZahUo-zOntCX7Fe7yov-5" value="提交文档事物" style="rounded=0;whiteSpace=wrap;html=1;" vertex="1" parent="1">
          <mxGeometry x="480" y="230" width="120" height="60" as="geometry" />
        </mxCell>
        <mxCell id="8ZahUo-zOntCX7Fe7yov-13" style="edgeStyle=orthogonalEdgeStyle;rounded=0;orthogonalLoop=1;jettySize=auto;html=1;" edge="1" parent="1" source="8ZahUo-zOntCX7Fe7yov-6" target="8ZahUo-zOntCX7Fe7yov-7">
          <mxGeometry relative="1" as="geometry" />
        </mxCell>
        <mxCell id="8ZahUo-zOntCX7Fe7yov-6" value="创建数据更改对象设置数据后存入Undo栈" style="rounded=0;whiteSpace=wrap;html=1;" vertex="1" parent="1">
          <mxGeometry x="320" y="230" width="120" height="60" as="geometry" />
        </mxCell>
        <mxCell id="8ZahUo-zOntCX7Fe7yov-7" value="草图操作结束" style="rounded=1;whiteSpace=wrap;html=1;" vertex="1" parent="1">
          <mxGeometry x="150" y="230" width="120" height="60" as="geometry" />
        </mxCell>
      </root>
    </mxGraphModel>
  </diagram>
</mxfile>
